<svg xmlns="http://www.w3.org/2000/svg" viewBox="0 0 750 500"><g id="freepik--background-complete--inject-7"><g><g><g><path d="M673.73379,333.9971h-180.7461c-3.2324,0-5.8623-2.6298-5.8623-5.8623V64.8614c0-3.2325,2.6299-5.8619,5.8623-5.8619h180.7461c3.2323,0,5.86221,2.6294,5.86221,5.8619V328.1348c0,3.2325-2.62991,5.8623-5.86221,5.8623ZM492.98769,59.2495c-3.09469,0-5.6123,2.5177-5.6123,5.6119V328.1348c0,3.0948,2.51761,5.6123,5.6123,5.6123h180.7461c3.0946,0,5.61221-2.5175,5.61221-5.6123V64.8614c0-3.0942-2.51761-5.6119-5.61221-5.6119h-180.7461Z" style="fill:#e0e0e0;"></path><path d="M465.30609,333.9971h-180.7466c-3.2324,0-5.8618-2.6298-5.8618-5.8623V64.8614c0-3.2325,2.6294-5.8619,5.8618-5.8619h180.7466c3.2324,0,5.8623,2.6294,5.8623,5.8619V328.1348c0,3.2325-2.6299,5.8623-5.8623,5.8623ZM284.5595,59.2495c-3.0942,0-5.6118,2.5177-5.6118,5.6119V328.1348c0,3.0948,2.5176,5.6123,5.6118,5.6123h180.7466c3.0947,0,5.6123-2.5175,5.6123-5.6123V64.8614c0-3.0942-2.5176-5.6119-5.6123-5.6119h-180.7466Z" style="fill:#e0e0e0;"></path></g><path d="M257.0123,333.9971H76.2658c-3.2324,0-5.8618-2.6298-5.8618-5.8623V64.8614c0-3.2325,2.6294-5.8619,5.8618-5.8619h180.7465c3.2324,0,5.8623,2.6294,5.8623,5.8619V328.1348c0,3.2325-2.6299,5.8623-5.8623,5.8623ZM76.2658,59.2495c-3.0942,0-5.6118,2.5177-5.6118,5.6119V328.1348c0,3.0948,2.5176,5.6123,5.6118,5.6123h180.7465c3.0948,0,5.6123-2.5175,5.6123-5.6123V64.8614c0-3.0942-2.5175-5.6119-5.6123-5.6119H76.2658Z" style="fill:#e0e0e0;"></path><rect y="365.3111" width="750" height=".1204" style="fill:#e0e0e0;"></rect></g><g><rect x="651.42779" y="383.7382" width="55.7291" height=".4205" style="fill:#e0e0e0;"></rect><rect x="492.845" y="388.3039" width="14.62679" height=".4206" style="fill:#e0e0e0;"></rect><rect x="38.4459" y="370.9408" width="72.6745" height=".4208" style="fill:#e0e0e0;"></rect><rect x="126.10053" y="370.9408" width="10.65547" height=".4208" style="fill:#e0e0e0;"></rect><rect x="171.387" y="378.045" width="157.61289" height=".4205" style="fill:#e0e0e0;"></rect></g></g><g><g><path d="M661.293,432.3512c-.015-.4696-1.59521-47.1047-9.18081-54.4808-7.3777-7.1721-15.8456-.2666-16.2015,.0301l-.76069-.9114c.09569-.0811,9.65219-7.8816,17.79009,.0301,7.9263,7.7078,9.47691,53.3552,9.53891,55.2947l-1.186,.0373Z" style="fill:#e0e0e0;"></path><path d="M661.94409,441.5162c-.0546-.5575-5.1843-55.9856,15.05791-79.2167l.895,.7791c-19.90651,22.8461-14.82471,77.7699-14.77141,78.3217l-1.1815,.1159Z" style="fill:#e0e0e0;"></path><path d="M661.19569,435.653l-1.1848-.0788c.0417-.6283,3.9616-63.0139-10.8865-76.6706l.8035-.8742c15.2642,14.0403,11.4382,75.0337,11.2678,77.6236Z" style="fill:#e0e0e0;"></path><path d="M663.12839,435.6182l-1.1872-.0091c.0145-1.7183,.4899-42.1389,11.9715-48.7184,2.55231-1.4644,5.0515-1.708,7.4289-.7247,6.9427,2.8717,10.3832,15.2277,10.5263,15.7517l-1.1455,.3132c-.0336-.1232-3.4306-12.3201-9.8359-14.9682-2.0189-.8336-4.1663-.6133-6.3836,.6574-10.8951,6.2433-11.371,47.2844-11.3745,47.6981Z" style="fill:#e0e0e0;"></path><path d="M658.65709,435.6473l-1.1847-.0672c.0178-.319,1.7319-31.9419-6.8025-43.0838-2.0678-2.699-4.3125-3.986-6.684-3.8202-5.59189,.3907-10.281,8.5738-10.3275,8.656l-1.0341-.5841c.2036-.3596,5.0481-8.8196,11.277-9.2557,2.78671-.1983,5.3843,1.2452,7.7112,4.2829,8.8023,11.4908,7.12051,42.556,7.0446,43.8721Z" style="fill:#e0e0e0;"></path><path d="M660.52839,439.9487c-.23239-3.0679-5.579-75.2736,3.8284-87.997l.95421,.7048c-9.14721,12.3722-3.65511,86.4551-3.59891,87.2017l-1.1837,.0905Z" style="fill:#e0e0e0;"></path></g><path d="M683.9,393.4838s-5.64361,2.0805-3.96561,6.9923c1.6778,4.912,19.52361,12.9959,19.52361,12.9959,0,0,7.47389-6.8505,.61009-17.9918-6.8637-11.1412-16.0154-5.5117-16.16809-1.9964Z" style="fill:#ebebeb;"></path><path d="M659.36579,384.1336s6.0097-.2518,6.3513,4.9277c.3415,5.1793-13.0192,19.5082-13.0192,19.5082,0,0-9.5346-3.447-7.4868-16.3716,2.04791-12.9246,12.6612-11.2503,14.1547-8.0643Z" style="fill:#ebebeb;"></path><path d="M654.27789,359.341s4.0067-.4303,3.68411-2.8707c-.32251-2.4406-15.57561-8.7218-24.57471,1.4351,0,0,5.7623,9.8983,14.0921,10.0276,8.3297,.1294,6.7985-8.592,6.7985-8.592Z" style="fill:#ebebeb;"></path><path d="M661.74409,353.4143s-3.628,1.7542-4.6449-.4878c-1.017-2.2417,8.6059-15.6396,21.6154-11.7792,0,0,.3447,11.4481-6.6562,15.9634-7.0008,4.5156-10.3143-3.6964-10.3143-3.6964Z" style="fill:#ebebeb;"></path><path d="M642.774,391.5094s2.76509-2.2326-.21911-3.3224c-2.9844-1.0899-17.6271-.7802-17.7797,13.7246,0,0,17.0542,2.834,19.1652-2.6909,2.111-5.5251-1.16639-7.7113-1.16639-7.7113Z" style="fill:#ebebeb;"></path><path d="M677.55049,358.9773s-2.7652-2.2328,.219-3.3227c2.9841-1.0897,17.6268-.7802,17.7794,13.7246,0,0-17.0542,2.8344-19.165-2.691-2.11089-5.5249,1.1666-7.7109,1.1666-7.7109Z" style="fill:#ebebeb;"></path><path d="M668.53459,370.6616s-.2433-2.7141,1.9479-1.6503c2.1911,1.0639,9.8247,9.2991,1.9119,17.114,0,0-10.6515-7.8888-8.7316-11.9969,1.92-4.1081,4.8718-3.4668,4.8718-3.4668Z" style="fill:#ebebeb;"></path><path d="M640.30159,374.5292s1.6533-2.1662-.7677-2.4347c-2.42089-.2685-13.27,2.6274-10.7435,13.458,0,0,13.2172-.9935,13.7838-5.4926,.5665-4.4991-2.2726-5.5307-2.2726-5.5307Z" style="fill:#ebebeb;"></path><polygon points="674.23939 456.5397 647.57949 456.5397 640.48819 423.8315 680.65719 423.8315 674.23939 456.5397" style="fill:#f0f0f0;"></polygon><rect x="638.06969" y="423.358" width="44.9015" height="9.4057" style="fill:#e6e6e6;"></rect></g><path d="M606.91589,106.0777c-1.2065-5.8209-3.5132-11.2326-6.6677-16.0388l5.7429-6.9366-12.2777-12.2785-6.9373,5.7421c-4.8064-3.153-10.2182-5.4603-16.0382-6.6669l-.8422-8.9412h-17.3638l-.8426,8.9412c-5.8201,1.2069-11.2322,3.5139-16.0378,6.6669l-6.937-5.7421-12.2784,12.2785,5.7426,6.9372c-3.1542,4.8056-5.4605,10.2173-6.6678,16.0382l-8.9412,.8429v17.3627l8.9412,.843c1.2073,5.8201,3.5136,11.2309,6.6678,16.0375l-5.7426,6.937,12.2784,12.2784,6.937-5.7437c4.8056,3.1553,10.2177,5.4612,16.0378,6.6681l.8426,8.9412h17.3638l.8422-8.9404c5.82-1.2063,11.2318-3.5136,16.0382-6.6689l6.9373,5.7437,12.2777-12.2784-5.7429-6.9364c3.1545-4.8072,5.4612-10.218,6.6677-16.0381l8.9405-.843v-17.3627l-8.9405-.8429Zm-22.19589,9.5239c0,12.9817-10.524,23.5061-23.50651,23.5061s-23.5062-10.5244-23.5062-23.5061,10.524-23.5064,23.5062-23.5064,23.50651,10.5242,23.50651,23.5064Z" style="fill:#f0f0f0;"></path><path d="M271.2919,88.5986c-.9763-4.7099-2.8427-9.0888-5.3952-12.9778l4.6469-5.6128-9.9346-9.9351-5.6133,4.6462c-3.889-2.5512-8.268-4.4182-12.9773-5.3945l-.6815-7.2348h-14.0499l-.6818,7.2348c-4.7093,.9766-9.0885,2.8433-12.977,5.3945l-5.6131-4.6462-9.935,9.9351,4.6466,5.6133c-2.5522,3.8885-4.4184,8.2674-5.3953,12.9773l-7.2348,.6821v14.049l7.2348,.6821c.9769,4.7094,2.8431,9.0875,5.3953,12.9768l-4.6466,5.613,9.935,9.9351,5.6131-4.6475c3.8885,2.5531,8.2677,4.4189,12.977,5.3955l.6818,7.2348h14.0499l.6815-7.2341c4.7093-.9761,9.0883-2.8431,12.9773-5.3962l5.6133,4.6475,9.9346-9.9351-4.6469-5.6125c2.5525-3.8898,4.4189-8.2679,5.3952-12.9773l7.2342-.6821v-14.049l-7.2342-.6821Zm-17.9598,7.7063c0,10.5042-8.5156,19.02-19.0203,19.02s-19.0202-8.5158-19.0202-19.02,8.5156-19.0202,19.0202-19.0202,19.0203,8.5156,19.0203,19.0202Z" style="fill:#f0f0f0;"></path><path d="M338.78659,314.1844c-.9762-4.71-2.84259-9.0889-5.3951-12.9778l4.6468-5.6128-9.9345-9.9351-5.6133,4.6462c-3.889-2.5512-8.268-4.4182-12.9773-5.3945l-.6815-7.2348h-14.0499l-.6818,7.2348c-4.7094,.9766-9.0885,2.8433-12.977,5.3945l-5.6131-4.6462-9.935,9.9351,4.6466,5.6133c-2.5523,3.8884-4.4184,8.2673-5.3953,12.9773l-7.2348,.682v14.0491l7.2348,.6821c.9769,4.7094,2.843,9.0875,5.3953,12.9768l-4.6466,5.613,9.935,9.9351,5.6131-4.6475c3.8885,2.5531,8.2676,4.4189,12.977,5.3955l.6818,7.2348h14.0499l.6815-7.2342c4.7093-.976,9.0883-2.843,12.9773-5.3961l5.6133,4.6475,9.9345-9.9351-4.6468-5.6125c2.55251-3.8898,4.4189-8.2679,5.3951-12.9773l7.2343-.6821v-14.0491l-7.2343-.682Zm-17.9597,7.7063c0,10.5041-8.5156,19.02-19.0203,19.02s-19.0202-8.5159-19.0202-19.02,8.5156-19.0202,19.0202-19.0202,19.0203,8.5156,19.0203,19.0202Z" style="fill:#f0f0f0;"></path><path d="M345.549,84.3188c-.45721-2.2055-1.33111-4.2559-2.52641-6.077l2.176-2.6282-4.652-4.6523-2.6285,2.1757c-1.821-1.1947-3.8715-2.0689-6.0767-2.5261l-.3191-3.3877h-6.5791l-.31919,3.3877c-2.2052,.4573-4.2558,1.3314-6.0766,2.5261l-2.6284-2.1757-4.6522,4.6523,2.1759,2.6284c-1.1952,1.8209-2.069,3.8713-2.5264,6.0768l-3.3878,.3194v6.5786l3.3878,.3194c.4574,2.2052,1.3312,4.2553,2.5264,6.0765l-2.1759,2.6284,4.6522,4.6522,2.6284-2.1763c1.8208,1.1955,3.8714,2.0692,6.0766,2.5265l.31919,3.3878h6.5791l.3191-3.3875c2.2052-.457,4.2557-1.3313,6.0767-2.5268l2.6285,2.1763,4.652-4.6522-2.176-2.6282c1.1953-1.8214,2.0692-3.8715,2.52641-6.0767l3.38749-.3194v-6.5786l-3.38749-.3194Zm-8.40991,3.6086c0,4.9186-3.9875,8.9062-8.9064,8.9062s-8.9064-3.9876-8.9064-8.9062c0-4.9189,3.9875-8.9065,8.9064-8.9065s8.9064,3.9876,8.9064,8.9065Z" style="fill:#f0f0f0;"></path><path d="M312.0436,58.5744c-.3019-1.4568-.8792-2.8111-1.6686-4.0139l1.4372-1.736-3.0726-3.0728-1.7362,1.4371c-1.2028-.7891-2.5572-1.3666-4.0137-1.6685l-.2108-2.2377h-4.3454l-.2109,2.2377c-1.4566,.302-2.811,.8794-4.0136,1.6685l-1.7361-1.4371-3.0728,3.0728,1.4372,1.7361c-.7894,1.2027-1.3666,2.557-1.6687,4.0138l-2.2377,.2109v4.3452l2.2377,.211c.3021,1.4566,.8793,2.8106,1.6687,4.0136l-1.4372,1.736,3.0728,3.0728,1.7361-1.4374c1.2026,.7896,2.557,1.3667,4.0136,1.6688l.2109,2.2376h4.3454l.2108-2.2374c1.4565-.3019,2.8109-.8794,4.0137-1.669l1.7362,1.4374,3.0726-3.0728-1.4372-1.7359c.7894-1.2031,1.3667-2.5571,1.6686-4.0137l2.2375-.211v-4.3452l-2.2375-.2109Zm-5.5547,2.3835c0,3.2488-2.6338,5.8826-5.8828,5.8826s-5.8827-2.6338-5.8827-5.8826c0-3.249,2.6338-5.8828,5.8827-5.8828s5.8828,2.6338,5.8828,5.8828Z" style="fill:#f0f0f0;"></path><path d="M162.704,285.7095c-.6168-2.9755-1.7959-5.7418-3.4084-8.1987l2.9356-3.5458-6.276-6.2765-3.5462,2.9353c-2.4569-1.6118-5.2232-2.7912-8.1983-3.408l-.4305-4.5705h-8.87597l-.43069,4.5705c-2.97511,.617-5.7416,1.7962-8.19813,3.408l-3.54601-2.9353-6.2764,6.2765,2.93547,3.5461c-1.61237,2.4566-2.79129,5.2229-3.40843,8.1984l-4.57054,.4308v8.8754l4.57054,.4309c.61714,2.9751,1.79606,5.741,3.40843,8.198l-2.93547,3.546,6.2764,6.2764,3.54601-2.936c2.45653,1.6129,5.22302,2.7916,8.19813,3.4086l.43069,4.5705h8.87597l.4305-4.5701c2.9751-.6167,5.7414-1.7961,8.1983-3.409l3.5462,2.936,6.276-6.2764-2.9356-3.5457c1.6125-2.4573,2.7916-5.2232,3.4084-8.1983l4.5701-.4309v-8.8754l-4.5701-.4308Zm-11.346,4.8684c0,6.6359-5.3796,12.0157-12.0159,12.0157s-12.01583-5.3798-12.01583-12.0157,5.37963-12.0159,12.01583-12.0159,12.0159,5.3797,12.0159,12.0159Z" style="fill:#f0f0f0;"></path><path d="M684.59529,146.5211c-.7027-3.3898-2.0459-6.5412-3.8829-9.3401l3.3443-4.0395-7.1499-7.1503-4.03979,3.3439c-2.799-1.8361-5.95051-3.1798-9.33981-3.8825l-.4904-5.2068h-10.1117l-.4907,5.2068c-3.3893,.7029-6.541,2.0464-9.3395,3.8825l-4.0397-3.3439-7.1503,7.1503,3.3442,4.0398c-1.8368,2.7986-3.1799,5.95-3.883,9.3398l-5.2068,.4909v10.111l5.2068,.4909c.7031,3.3894,2.0462,6.5403,3.883,9.3394l-3.3442,4.0397,7.1503,7.1502,4.0397-3.3448c2.7985,1.8375,5.9502,3.1803,9.3395,3.8832l.4907,5.2068h10.1117l.4904-5.2064c3.3893-.7025,6.54081-2.0461,9.33981-3.8836l4.03979,3.3448,7.1499-7.1502-3.3443-4.0393c1.837-2.7995,3.1802-5.9504,3.8829-9.3398l5.2064-.4909v-10.111l-5.2064-.4909Zm-12.9256,5.5462c0,7.5598-6.12869,13.6886-13.6889,13.6886s-13.6887-6.1288-13.6887-13.6886,6.1286-13.6888,13.6887-13.6888,13.6889,6.1287,13.6889,13.6888Z" style="fill:#f0f0f0;"></path></g><g id="freepik--Shadow--inject-7"><path d="M672.00549,463.9932c0,3.7083-115.672,6.7145-258.36069,6.7145s-258.36069-3.0062-258.36069-6.7145,115.672-6.7146,258.36069-6.7146,258.36069,3.0062,258.36069,6.7146Z" style="fill:#f5f5f5;"></path></g><g id="freepik--Window--inject-7"><g><rect x="208.7278" y="91.1101" width="340.82429" height="234.7065" rx="11.6725" ry="11.6725" style="fill:#407BFF;"></rect><rect x="208.7278" y="91.1101" width="340.82429" height="234.7065" rx="11.6725" ry="11.6725" style="fill:#fff; opacity:.7;"></rect><g><path d="M216.0155,91.1101h323.24879c5.67799,0,10.2878,4.60981,10.2878,10.2878v7.3447H208.7278v-10.3448c0-4.02219,3.26551-7.2877,7.2877-7.2877Z" style="fill:#407BFF;"></path><path d="M536.427,99.9264c0,2.0692-1.67731,3.7466-3.74661,3.7466-2.0691,0-3.74639-1.6774-3.74639-3.7466s1.67729-3.7466,3.74639-3.7466c2.0693,0,3.74661,1.6775,3.74661,3.7466Z" style="fill:#fff; opacity:.3;"></path><path d="M525.779,99.9264c0,2.0692-1.67731,3.7466-3.74641,3.7466s-3.74659-1.6774-3.74659-3.7466,1.67739-3.7466,3.74659-3.7466,3.74641,1.6775,3.74641,3.7466Z" style="fill:#fff; opacity:.3;"></path><circle cx="511.38459" cy="99.9264" r="3.74655" style="fill:#fff; opacity:.3;"></circle><g><path d="M268.2977,83.2573h29.4011" style="fill:none; stroke:#407BFF; stroke-linecap:round; stroke-linejoin:round;"></path><path d="M305.7974,83.2573h6.1228" style="fill:none; stroke:#407BFF; stroke-linecap:round; stroke-linejoin:round;"></path></g></g><path d="M500.65229,129.1956H249.9467c-5.9041,0-10.6904,4.7862-10.6904,10.6903s4.7863,10.6903,10.6904,10.6903h250.70559c5.9041,0,10.6903-4.7862,10.6903-10.6903s-4.7862-10.6903-10.6903-10.6903Z" style="opacity:.1;"></path><g><path d="M500.65229,144.7672H249.9467c-5.9041,0-10.6904-4.7862-10.6904-10.6903h0c0-5.9041,4.7863-10.6902,10.6904-10.6902h250.70559c5.9041,0,10.6903,4.7861,10.6903,10.6902h0c0,5.9041-4.7862,10.6903-10.6903,10.6903Z" style="fill:#fff;"></path><g><path d="M499.69889,133.5049c0,.9883-.304,1.9057-.8235,2.6637-.8499,1.24-2.2768,2.0535-3.8937,2.0535-2.6052,0-4.7172-2.112-4.7172-4.7172s2.112-4.7172,4.7172-4.7172,4.7172,2.112,4.7172,4.7172Z" style="fill:none; stroke:#407BFF; stroke-miterlimit:10;"></path><line x1="501.82759" y1="139.3661" x2="498.61789" y2="136.8488" style="fill:none; stroke:#407BFF; stroke-linecap:round; stroke-linejoin:round;"></line></g></g><g><path d="M376.86589,176.494h57.9386c2.24331,0,4.0646,1.82129,4.0646,4.0646v57.9387c0,2.24331-1.82129,4.0646-4.0646,4.0646h-57.9387c-2.24326,0-4.0645-1.82124-4.0645-4.0645v-57.9388c0-2.24331,1.82129-4.0646,4.0646-4.0646Z" style="fill:none; stroke:#407BFF; stroke-miterlimit:10; stroke-width:.75px;"></path><line x1="373.91409" y1="241.449" x2="437.66249" y2="177.7006" style="fill:none; stroke:#407BFF; stroke-miterlimit:10; stroke-width:.75px;"></line><line x1="373.91409" y1="177.6068" x2="437.66249" y2="241.3552" style="fill:none; stroke:#407BFF; stroke-miterlimit:10; stroke-width:.75px;"></line></g><g><path d="M459.32199,176.494h57.93879c2.24326,0,4.06451,1.82125,4.06451,4.06451v57.93879c0,2.24331-1.82129,4.0646-4.0646,4.0646h-57.9387c-2.24326,0-4.0645-1.82124-4.0645-4.0645v-57.9389c0-2.24326,1.82124-4.0645,4.0645-4.0645Z" style="fill:none; stroke:#407BFF; stroke-miterlimit:10; stroke-width:.75px;"></path><line x1="456.37029" y1="241.449" x2="520.11869" y2="177.7006" style="fill:none; stroke:#407BFF; stroke-miterlimit:10; stroke-width:.75px;"></line><line x1="456.37029" y1="177.6068" x2="520.11869" y2="241.3552" style="fill:none; stroke:#407BFF; stroke-miterlimit:10; stroke-width:.75px;"></line></g><rect x="372.75439" y="254.9495" width="64.7007" height="3.0973" style="fill:#407BFF;"></rect><rect x="372.75439" y="264.2093" width="64.7007" height="3.0974" style="fill:#407BFF;"></rect><rect x="372.75439" y="273.3614" width="39.8145" height="3.0974" style="fill:#407BFF;"></rect><rect x="458.85219" y="254.9495" width="64.7007" height="3.0973" style="fill:#407BFF;"></rect><rect x="458.85219" y="264.2093" width="64.7007" height="3.0974" style="fill:#407BFF;"></rect><rect x="458.85219" y="273.3614" width="39.8145" height="3.0974" style="fill:#407BFF;"></rect><rect x="241.2208" y="146.4797" width="105.0358" height="104.8609" rx="4.9361" ry="4.9361" style="opacity:.2;"></rect><g><g><g><rect x="233.5561" y="139.0436" width="105.0358" height="104.861" rx="4.9361" ry="4.9361" style="fill:#407BFF;"></rect><rect x="233.5561" y="139.0436" width="105.0358" height="104.861" rx="4.9361" ry="4.9361" style="fill:#fff; opacity:.5;"></rect><path d="M238.1829,139.0436h95.8634c2.50878,0,4.5456,2.03682,4.5456,4.5456v8.4779h-105.0358v-8.3967c0-2.5536,2.0732-4.6268,4.6268-4.6268Z" style="fill:#407BFF;"></path></g><g><path d="M324.29919,146.2836c0,1.5236-1.235,2.7587-2.7585,2.7587-1.5236,0-2.7586-1.2351-2.7586-2.7587,0-1.5235,1.235-2.7586,2.7586-2.7586,1.5235,0,2.7585,1.2351,2.7585,2.7586Z" style="fill:#fff; opacity:.5;"></path><path d="M316.459,146.2836c0,1.5236-1.2349,2.7587-2.7585,2.7587-1.5235,0-2.7585-1.2351-2.7585-2.7587,0-1.5235,1.235-2.7586,2.7585-2.7586,1.5236,0,2.7585,1.2351,2.7585,2.7586Z" style="fill:#fff; opacity:.5;"></path><path d="M308.6189,146.2836c0,1.5236-1.2349,2.7587-2.7586,2.7587-1.5235,0-2.7585-1.2351-2.7585-2.7587,0-1.5235,1.235-2.7586,2.7585-2.7586,1.5237,0,2.7586,1.2351,2.7586,2.7586Z" style="fill:#fff; opacity:.5;"></path></g></g><g><path d="M254.6321,164.4588h66.4575c3.3647,0,6.0964,2.73171,6.0964,6.0964v49.7689c0,3.36469-2.73171,6.0964-6.0964,6.0964h-70.0311c-3.36475,0-6.0965-2.73175-6.0965-6.0965v-46.1951c0-5.33707,4.33303-9.6701,9.6701-9.6701Z" style="fill:#fff; opacity:.5;"></path><g><path d="M282.2644,203.4446h-17.4429l-3.6108,8.2056h-4.8296l14.8643-32.8232h4.642l14.9112,32.8232h-4.9234l-3.6108-8.2056Zm-1.6411-3.7514l-7.0806-16.0835-7.0801,16.0835h14.1607Z" style="fill:#407BFF;"></path><path d="M314.7073,196.6453v15.0049h-4.2671v-3.2822c-1.5005,2.2505-4.2671,3.5634-8.1587,3.5634-5.627,0-9.1904-3.0009-9.1904-7.3149,0-3.9853,2.5786-7.2681,9.9873-7.2681h7.1274v-.8906c0-3.7983-2.2036-6.0019-6.6582-6.0019-2.9541,0-5.9551,1.0317-7.8779,2.6728l-1.8755-3.3765c2.5791-2.0629,6.2832-3.1884,10.269-3.1884,6.7989,0,10.6441,3.2822,10.6441,10.0815Zm-4.5015,7.4087v-3.4697h-6.9399c-4.4546,0-5.7203,1.7348-5.7203,3.8447,0,2.4854,2.063,4.0327,5.4859,4.0327,3.376,0,6.0488-1.5473,7.1743-4.4077Z" style="fill:#407BFF;"></path></g></g></g><rect x="373.18359" y="295.8337" width="152.7158" height="12.4695" style="fill:none; stroke:#407BFF; stroke-miterlimit:10; stroke-width:.75px;"></rect><rect x="240.2764" y="263.4519" width="105.9802" height="6.0063" style="fill:none; stroke:#407BFF; stroke-miterlimit:10; stroke-width:.75px;"></rect><rect x="240.2764" y="277.2973" width="105.9802" height="6.0063" style="fill:none; stroke:#407BFF; stroke-miterlimit:10; stroke-width:.75px;"></rect><rect x="240.2764" y="291.1428" width="105.9802" height="6.0063" style="fill:none; stroke:#407BFF; stroke-miterlimit:10; stroke-width:.75px;"></rect></g></g><g id="freepik--Colors--inject-7"><g><rect x="405.21789" y="344.9844" width="144.7448" height="54.5318" rx="6.0093" ry="6.0093" style="fill:#407BFF;"></rect><rect x="405.21789" y="344.9844" width="144.7448" height="54.5318" rx="6.0093" ry="6.0093" style="fill:#fff; opacity:.7;"></rect><rect x="418.73019" y="356.9373" width="30.626" height="30.626" rx="2.4697" ry="2.4697" style="fill:#407BFF;"></rect><rect x="418.73019" y="356.9373" width="30.626" height="30.626" rx="2.4697" ry="2.4697" style="fill:#fff; opacity:.3;"></rect><rect x="460.72879" y="356.9373" width="30.626" height="30.626" rx="2.4697" ry="2.4697" style="fill:#407BFF;"></rect><rect x="502.72739" y="356.9373" width="30.626" height="30.626" rx="2.4697" ry="2.4697" style="fill:#407BFF;"></rect><rect x="502.72739" y="356.9373" width="30.626" height="30.626" rx="2.4697" ry="2.4697" style="opacity:.3;"></rect></g></g><g id="freepik--Image--inject-7"><g><g><g><rect x="563.68339" y="68.2216" width="96.1113" height="80.8193" rx="4.9361" ry="4.9361" style="fill:#407BFF;"></rect><rect x="563.68339" y="68.2216" width="96.1113" height="80.8193" rx="4.9361" ry="4.9361" style="fill:#fff; opacity:.5;"></rect><path d="M568.31019,68.2216h86.9389c2.50878,0,4.5456,2.03682,4.5456,4.5456v9.5473h-96.1113v-9.4661c0-2.5536,2.0732-4.6268,4.6268-4.6268Z" style="fill:#407BFF;"></path></g><g><path d="M654.36709,76.2955c0,1.6991-1.3773,3.0765-3.0763,3.0765s-3.0763-1.3774-3.0763-3.0765c0-1.699,1.3773-3.0763,3.0763-3.0763s3.0763,1.3773,3.0763,3.0763Z" style="fill:#fff; opacity:.5;"></path><path d="M645.62389,76.2955c0,1.6991-1.3772,3.0765-3.0763,3.0765-1.699,0-3.0763-1.3774-3.0763-3.0765,0-1.699,1.3773-3.0763,3.0763-3.0763,1.6991,0,3.0763,1.3773,3.0763,3.0763Z" style="fill:#fff; opacity:.5;"></path><path d="M636.88069,76.2955c0,1.6991-1.3772,3.0765-3.0764,3.0765-1.6989,0-3.0762-1.3774-3.0762-3.0765,0-1.699,1.3773-3.0763,3.0762-3.0763,1.6992,0,3.0764,1.3773,3.0764,3.0763Z" style="fill:#fff; opacity:.5;"></path></g></g><g><rect x="578.10139" y="92.6726" width="69.0902" height="47.2662" rx="3.4216" ry="3.4216" style="fill:#407BFF;"></rect><rect x="578.10139" y="92.6726" width="69.0902" height="47.2662" rx="3.4216" ry="3.4216" style="fill:#fff; opacity:.8;"></rect><path d="M579.99529,138.2157l21.5768-19.6311,15.5336,7.2734,18.7318-14.1784,11.3541,7.259v19.2163c0,.9852-1.1675,1.7839-2.60759,1.7839h-63.33121c-1.2974,0-2.0372-1.0138-1.2575-1.7231Z" style="fill:#407BFF;"></path><path d="M622.03619,104.0407c0,3.2351-2.6591,5.8577-5.939,5.8577s-5.939-2.6226-5.939-5.8577c0-3.2353,2.6591-5.8578,5.939-5.8578s5.939,2.6225,5.939,5.8578Z" style="fill:#407BFF;"></path></g></g></g><g id="freepik--Chart--inject-7"><g><g><g><rect x="77.5635" y="112.5823" width="91.2" height="76.6893" rx="4.9361" ry="4.9361" style="fill:#407BFF;"></rect><rect x="77.5635" y="112.5823" width="91.2" height="76.6893" rx="4.9361" ry="4.9361" style="fill:#fff; opacity:.5;"></rect><path d="M82.1903,112.5823h82.0276c2.50878,0,4.5456,2.03682,4.5456,4.5456v8.8271H77.5635v-8.7459c0-2.5536,2.0732-4.6268,4.6268-4.6268Z" style="fill:#407BFF;"></path></g><g><path d="M163.6132,120.2436c0,1.6122-1.3069,2.9193-2.919,2.9193-1.6123,0-2.9192-1.3071-2.9192-2.9193s1.3069-2.9191,2.9192-2.9191c1.6121,0,2.919,1.3069,2.919,2.9191Z" style="fill:#fff; opacity:.5;"></path><path d="M155.3168,120.2436c0,1.6122-1.3069,2.9193-2.9191,2.9193-1.6121,0-2.9191-1.3071-2.9191-2.9193s1.307-2.9191,2.9191-2.9191c1.6122,0,2.9191,1.3069,2.9191,2.9191Z" style="fill:#fff; opacity:.5;"></path><path d="M147.0204,120.2436c0,1.6122-1.3068,2.9193-2.9192,2.9193-1.6121,0-2.919-1.3071-2.919-2.9193s1.3069-2.9191,2.919-2.9191c1.6124,0,2.9192,1.3069,2.9192,2.9191Z" style="fill:#fff; opacity:.5;"></path></g></g><g><path d="M121.72978,157.4006l7.90935-21.7297c2.94653,1.0725,5.64427,2.7331,7.92897,4.8808,2.2846,2.1477,4.1088,4.7377,5.3613,7.6124l-21.19962,9.2365Z" style="fill:#f5f5f5;"></path><path d="M121.72978,157.4006l6.7396,22.1203c-2.18457,.6656-4.45583,1.004-6.7396,1.004-12.68558,0-23.12418-10.4387-23.12418-23.1243s10.4386-23.1243,23.12418-23.1243c2.66072,0,5.30157,.4592,7.80606,1.3573l-7.80606,21.767Z" style="fill:#407BFF;"></path><path d="M121.72978,157.4006l21.24342-9.1355c1.2409,2.8858,1.8809,5.9943,1.8809,9.1355,0,10.1133-6.6346,19.1076-16.29709,22.0934l-6.82723-22.0934Z" style="fill:#407BFF;"></path><path d="M121.72978,157.4006l21.24342-9.1355c1.2409,2.8858,1.8809,5.9943,1.8809,9.1355,0,10.1133-6.6346,19.1076-16.29709,22.0934l-6.82723-22.0934Z" style="opacity:.3;"></path></g></g></g><g id="freepik--Plant--inject-7"><g><g><g><path d="M105.1201,430.081c-.0134-.4177-1.4188-41.8976-8.166-48.4583-6.5621-6.3794-14.0939-.2373-14.4106,.0267l-.6765-.8106c.0853-.0721,8.5852-7.0105,15.8235,.0268,7.0501,6.8558,8.4295,47.457,8.4845,49.1823l-1.0549,.0331Z" style="fill:#263238;"></path><path d="M105.6992,438.2329c-.0486-.4959-4.6112-49.7969,13.39332-70.4598l.79618,.6928c-17.7062,20.3208-13.1861,69.1732-13.1388,69.6639l-1.0507,.1031Z" style="fill:#263238;"></path><path d="M105.0335,433.0179l-1.0539-.0701c.037-.5589,3.5238-56.0484-9.6829-68.1954l.7146-.7775c13.5769,12.4885,10.1737,66.7393,10.0222,69.043Z" style="fill:#263238;"></path><path d="M106.7526,432.987l-1.0561-.0083c.013-1.5284,.4357-37.4807,10.64818-43.3329,2.27035-1.3025,4.49324-1.519,6.60784-.6447,6.17509,2.5545,9.23528,13.5445,9.36261,14.0107l-1.01876,.2785c-.03001-.1096-3.05147-10.9582-8.74874-13.3136-1.79575-.7414-3.70564-.5455-5.67791,.5847-9.69082,5.5533-10.11402,42.0575-10.11712,42.4256Z" style="fill:#263238;"></path><path d="M102.7754,433.0128l-1.0537-.0597c.0159-.2839,1.5407-28.411-6.0504-38.3213-1.8392-2.4007-3.8358-3.5454-5.9451-3.3978-4.9737,.3474-9.1446,7.6258-9.186,7.6993l-.9198-.5198c.1811-.3198,4.4901-7.8447,10.0304-8.2326,2.4787-.1762,4.7892,1.1075,6.8589,3.8095,7.8293,10.2207,6.3334,37.8519,6.2657,39.0224Z" style="fill:#263238;"></path><path d="M104.4401,436.8388c-.2068-2.7288-4.9624-66.9529,3.4051-78.2697l.8486,.6269c-8.136,11.0045-3.2509,76.8981-3.2009,77.5622l-1.0528,.0806Z" style="fill:#263238;"></path></g><path d="M126.74313,392.5475s-5.34012,1.9732-3.52731,6.2194c5.10796,11.9643,17.28328,13.2393,17.28328,13.2393,0,0,5.713-9.0441,1.0302-16.0685-6.4563-9.6844-14.65045-6.5168-14.78617-3.3902Z" style="fill:#407BFF;"></path><path d="M103.406,387.1935s5.3453-.2238,5.6491,4.3831c.3038,4.6067-11.5801,17.3516-11.5801,17.3516,0,0-8.4806-3.0658-6.659-14.5618,1.8215-11.4959,11.2616-10.0065,12.59-7.1729Z" style="fill:#407BFF;"></path><path d="M105.9975,360.3468s-2.2449-.2762-3.0893-2.2965c-2.5184-6.0265,6.1362-12.5249,17.7077-9.0913,0,0,.30641,10.1826-5.9205,14.1989-6.227,4.0162-8.6979-2.8111-8.6979-2.8111Z" style="fill:#407BFF;"></path><path d="M86.1675,391.9253s1.8626-2.5541-.9521-2.8044c-2.8147-.2504-14.999,5.2096-11.7951,17.7077,0,0,15.6718-5.1117,16.2153-10.3443,.5436-5.2327-3.4681-4.559-3.4681-4.559Z" style="fill:#407BFF;"></path><path d="M119.58032,364.818s.70404-2.3191,3.35827-3.2884c2.65423-.9694,12.51501-.3609,12.65071,12.5405,0,0-15.16896,2.5211-17.04646-2.3934-1.87758-4.9142,1.03748-6.8587,1.03748-6.8587Z" style="fill:#407BFF;"></path><path d="M111.3926,375.5388s1.0196-1.7685,2.9686-.8221c1.94895,.9461,7.69476,6.8584,2.21564,13.9952,0,0-10.18094-6.1214-9.34894-10.4176,.7669-3.9598,4.1647-2.7555,4.1647-2.7555Z" style="fill:#407BFF;"></path><path d="M86.4492,378.6508s1.4702-1.9267-.6828-2.1655c-2.1535-.2388-11.8033,2.337-9.556,11.9702,0,0,11.7562-.8836,12.2601-4.8852,.5038-4.0018-2.0213-4.9195-2.0213-4.9195Z" style="fill:#407BFF;"></path><polygon points="120.06358 458.7545 91.3296 458.7545 88.2297 429.0219 123.16349 429.0219 120.06358 458.7545" style="fill:#263238;"></polygon><rect x="83.3976" y="424.9484" width="44.59801" height="8.1468" style="fill:#263238;"></rect></g><path d="M96.4249,404.6819c-.8809-6.266,2.2904-13.2415,6.9811-17.4884" style="fill:none; opacity:.3; stroke:#000; stroke-linecap:round; stroke-linejoin:round; stroke-width:.5px;"></path><path d="M111.3926,375.8919c2.4304,2.4147,4.1212,5.564,4.79129,8.9237" style="fill:none; opacity:.3; stroke:#000; stroke-linecap:round; stroke-linejoin:round; stroke-width:.5px;"></path><path d="M126.74313,392.5475c4.84785,2.1525,9.41037,6.7082,11.73247,11.4771" style="fill:none; opacity:.3; stroke:#000; stroke-linecap:round; stroke-linejoin:round; stroke-width:.5px;"></path><path d="M119.58032,364.818c2.511-.7197,4.77847,.0494,7.21892,.9803,2.44045,.931,4.56461,2.6708,5.95828,4.8801" style="fill:none; opacity:.3; stroke:#000; stroke-linecap:round; stroke-linejoin:round; stroke-width:.5px;"></path><path d="M98.3044,366.9917s3.5591,.4249,3.7653-1.7549c.2064-2.1798-11.7653-10.6624-21.5891-3.6495,0,0,3.0242,9.7279,10.2194,11.4988,7.195,1.7711,7.6044-6.0944,7.6044-6.0944Z" style="fill:#407BFF;"></path><path d="M98.1942,367.1695c-3.743-5.0307-12.9302-6.6651-16.059-5.5316" style="fill:none; opacity:.3; stroke:#000; stroke-linecap:round; stroke-linejoin:round; stroke-width:.5px;"></path><path d="M86.5569,378.8249c-3.0542,1.1348-6.3161,3.0934-8.0116,5.8757" style="fill:none; opacity:.3; stroke:#000; stroke-linecap:round; stroke-linejoin:round; stroke-width:.5px;"></path><path d="M75.0951,402.0847c2.3873-4.5787,6.4009-8.2884,11.153-10.3087" style="fill:none; opacity:.3; stroke:#000; stroke-linecap:round; stroke-linejoin:round; stroke-width:.5px;"></path><path d="M106.4687,360.104c1.9055-4.0686,5.5654-7.2784,9.84787-8.6368" style="fill:none; opacity:.3; stroke:#000; stroke-linecap:round; stroke-linejoin:round; stroke-width:.5px;"></path><polygon points="88.6544 433.0952 89.2108 438.4328 122.1823 438.4328 122.73924 433.0888 88.6544 433.0952" style="opacity:.3;"></polygon></g></g><g id="freepik--Character_3--inject-7"><g id="freepik--freepik--character-1--inject-2--inject-7"><polygon points="588.24079 430.5403 591.53239 456.0962 599.27419 456.0962 601.26229 431.0143 588.24079 430.5403" style="fill:#cd877b;"></polygon><polygon points="643.60989 430.808 653.85729 455.5007 661.42809 454.2351 656.83749 426.7349 643.60989 430.808" style="fill:#cd877b;"></polygon><g><path d="M650.15309,450.2645h3.4601c.7829,0,1.5072,.3961,1.96981,1.0277,1.99519,2.7249,3.49479,1.6949,5.66509-.8668,1.3797-.1609,1.7511,1.4225,1.8637,1.848l2.5866,9.4089c.2247,.7858-.2301,1.6048-1.0158,1.8295-.1398,.0399-.28459,.0592-.4299,.0569h-27.4135c-4.3601,0-5.2636-4.394-3.4677-4.8004,8.0761-1.7847,13.7948-4.1613,16.291-6.5107,.4628-.4113-.01249-.7191,.4906-1.9931Z" style="fill:#263238;"></path><path d="M645.435,453.4136c1.09219-.0262,2.17869-.1663,3.24179-.4179,.0998-.0358,.1517-.1458,.1159-.2456-.0194-.054-.0619-.0965-.1159-.1159-.4857-.2371-4.8117-2.2589-5.8962-1.491-.2033,.1324-.3129,.3694-.2823,.61,.0053,.4485,.2233,.8676,.5874,1.1296,.7065,.4228,1.5297,.6088,2.34931,.5308Zm2.564-.6777c-1.27631,.2371-3.64841,.5535-4.631-.1807-.25481-.2005-.41111-.5009-.42921-.8245-.0202-.1018,.0248-.2053,.113-.2599,.5986-.4178,3.1513,.4745,4.94721,1.2651Z" style="fill:#407BFF;"></path><path d="M648.63159,453.007c.0442,.0132,.0913,.0132,.1356,0,.0576-.0504,.0799-.1303,.0564-.2032,0-.1808-1.01659-4.4391-3.38859-4.168-.58731,.079-.75681,.3615-.77931,.5986-.1469,1.1296,2.5752,3.2644,3.8742,3.8065l.1017-.0339Zm-2.9593-4.0324c1.5022,0,2.3719,2.485,2.6656,3.4789-1.412-.7455-3.3886-2.5188-3.2643-3.2078,0-.0565,0-.2146,.44041-.2598l.15829-.0113Z" style="fill:#407BFF;"></path></g><g><path d="M588.29129,450.6888h3.4601c.7829,0,1.5072,.396,1.9698,1.0277,1.9953,2.7249,3.4949,1.6949,5.6652-.8669,1.37961-.1608,1.7511,1.4226,1.86361,1.8481l2.58659,9.4089c.2247,.7858-.23,1.6048-1.0158,1.8295-.1397,.0399-.2846,.0591-.4299,.0569h-27.4135c-4.3601,0-5.2636-4.394-3.4677-4.8005,8.0761-1.7846,13.7948-4.1612,16.2911-6.5106,.4628-.4113-.0126-.7191,.4905-1.9931Z" style="fill:#263238;"></path><path d="M583.57329,453.8379c1.0921-.0262,2.17871-.1663,3.24171-.4179,.09979-.0359,.15169-.1458,.11589-.2457-.0194-.0539-.06189-.0964-.11589-.1158-.48571-.2371-4.81171-2.2589-5.89611-1.491-.2034,.1324-.313,.3694-.2824,.6099,.0054,.4486,.2233,.8677,.5874,1.1297,.7065,.4228,1.5298,.6088,2.3494,.5308Zm2.5639-.6777c-1.2763,.2371-3.6483,.5535-4.6309-.1807-.2549-.2005-.4112-.5009-.42929-.8245-.02021-.1018,.02479-.2053,.113-.2599,.59859-.4178,3.15129,.4745,4.94719,1.2651Z" style="fill:#407BFF;"></path><path d="M586.76979,453.4313c.04421,.0131,.0914,.0131,.1356,0,.0577-.0504,.0799-.1304,.0564-.2032,0-.1808-1.0166-4.4391-3.3885-4.168-.5874,.079-.7569,.3615-.7794,.5986-.14689,1.1295,2.5753,3.2643,3.8742,3.8065l.1017-.0339Zm-2.9593-4.0324c1.5022,0,2.3719,2.485,2.6656,3.4789-1.4119-.7455-3.3885-2.5188-3.2643-3.2079,0-.0564,0-.2145,.4405-.2598l.1582-.0112Z" style="fill:#407BFF;"></path></g><rect x="516.35949" y="181.6097" width="98.86951" height="98.8694" rx="3.4216" ry="3.4216" style="opacity:.2;"></rect><g><rect x="524.27309" y="174.7909" width="98.8695" height="98.8694" rx="3.4216" ry="3.4216" style="fill:#407BFF;"></rect><rect x="524.27309" y="174.7909" width="98.8695" height="98.8694" rx="3.4216" ry="3.4216" style="fill:#fff; opacity:.3;"></rect><path d="M526.98339,270.0559l30.8768-41.0635,22.2289,15.2142,26.8056-29.6577,16.2479,15.184v40.1958c0,2.0609-1.6707,3.7316-3.73159,3.7316h-90.62821c-1.8565,0-2.9151-2.1206-1.7994-3.6044Z" style="fill:#407BFF;"></path><path d="M585.96109,198.5703c0,6.767-5.4862,12.2527-12.2532,12.2527s-12.2533-5.4857-12.2533-12.2527c0-6.7675,5.4862-12.2533,12.2533-12.2533s12.2532,5.4858,12.2532,12.2533Z" style="fill:#407BFF;"></path></g><g><path d="M583.49129,176.6149c-.1422,.6752-.59229,1.1491-1.0425,1.0662-.4502-.083-.6752-.699-.5449-1.3742s.60411-1.1373,1.0424-1.0543c.4384,.071,.6871,.6871,.545,1.3623Z" style="fill:#263238;"></path><path d="M583.34909,177.7758c-1.2099,1.8919-2.67709,3.6063-4.3594,5.094,.7904,.8534,1.9181,1.3132,3.08,1.2557l1.2794-6.3497Z" style="fill:#7f2e2e;"></path><path d="M586.70159,173.3098c.2243-.0064,.4029-.1902,.4028-.4146-.01039-.0952-.0473-.1855-.1066-.2607-.8519-.9663-2.1187-1.4607-3.3999-1.3267-.0462-.0079-.0935-.0079-.1397,0-.2257,.0385-.3774,.2528-.3389,.4785,.0386,.2257,.2529,.3774,.4786,.3388h.1303c1.0365-.0707,2.0417,.3721,2.6891,1.1847,.0916,.0345,.19271,.0345,.2843,0Z" style="fill:#263238;"></path><path d="M602.161,188.8521c-1.18461,6.2075-1.97831,14.8079,2.36929,18.9541,0,0-1.7059,6.3022-13.2442,6.3022-12.6992,0-6.1008-5.5203-6.1008-5.5203,5.2716-1.6467,5.2005-7.6527,4.0159-12.486l12.95981-7.25Z" style="fill:#9f5b53;"></path><path d="M606.16509,179.766c-2.1323,8.1147-3.0445,13.0072-8.0555,16.4071-7.5579,5.0821-17.0231-.7581-17.2719-9.3822-.2606-7.7712,3.3407-19.7834,12.0832-21.43,6.2407-1.1931,12.2684,2.8943,13.4693,9.1335,.3349,1.7509,.25781,3.5556-.2251,5.2716Z" style="fill:#9f5b53;"></path><path d="M587.49529,172.9781c-1.176-1.7397-1.49029-3.9223-.8529-5.9232,0,0-5.8901-.1085-4.7752-1.9009,4.6857-1.0175,15.3275-9.8328,19.3893-.6014,1.7262,.6913,3.6934,1.1473,5.5969,1.7012,6.9247,2.0148,6.335,12.2641-.7963,13.3381-.0468,.0071-.0937,.0138-.1408,.0201-6.5984,.8885-14.3932-1.3268-18.421-6.6339Z" style="fill:#263238;"></path><path d="M609.87249,174.0302c-2.5351,3.4117-22.7326-1.2061-22.7326-1.2061l1.1136,10.0219,4.1699,10.3655,9.1927-.1066,8.2924-13.3034s2.4991-9.183-.036-5.7713Z" style="fill:#263238;"></path><path d="M591.19139,179.9793c-.5031,2.0323-1.6603,3.8429-3.2933,5.1531-2.156,1.694-3.85009,.1303-3.76709-2.3693,.08289-2.2745,1.36229-5.8639,3.73159-6.5984,2.3692-.7344,3.89741,1.3505,3.3288,3.8146Z" style="fill:#9f5b53;"></path></g><path d="M584.048,206.4794s1.70589-4.4305,3.55389-5.2716c1.84811-.8411,13.8247-3.2696,16.6559-1.6348,2.8313,1.6348,4.9281,7.167,4.9281,7.167l-25.13789-.2606Z" style="fill:#407BFF;"></path><path d="M584.048,206.4794s1.70589-4.4305,3.55389-5.2716c1.84811-.8411,13.8247-3.2696,16.6559-1.6348,2.8313,1.6348,4.9281,7.167,4.9281,7.167l-25.13789-.2606Z" style="fill:#263238;"></path><path d="M571.90089,216.4469c-1.8243,9.1454-4.4258,27.5972,.3127,64.9485l45.395,.2488c-.6989-5.9468-4.03959-35.5507,.9951-65.7351,.0197-.119,.0368-.2385,.0512-.3583,.5412-4.495-2.664-8.5776-7.159-9.1188-2.1876-.2843-4.391-.5015-6.6102-.6515-8.4626-.2396-16.932-.0458-25.3748,.5805-2.0583,.3564-4.8866,1.3135-6.0053,2.681-1.5503,1.8951-1.0409,4.5656-1.6047,7.4049Z" style="fill:#263238;"></path><path d="M588.26529,281.6205c7.6492,14.9969,14.0674,30.5906,19.191,46.6271,8.1148,26.512,38.9981,114.4708,38.9981,114.4708l14.9737-3.2815s-21.1575-75.5557-29.9356-112.5398c-6.7406-28.3719-13.9194-45.2529-13.9194-45.2529l-29.3078-.0237Z" style="fill:#407BFF;"></path><path d="M572.15429,281.6442c-.6276,15.541-.0891,31.1073,1.6111,46.5678,2.9261,26.903,13.9787,115.1342,13.9787,115.1342h14.4406s.5686-86.4898,0-112.9426c-.63969-28.8458-.1066-48.7594-.1066-48.7594h-29.9238Z" style="fill:#407BFF;"></path><path d="M536.56319,277.0713h-2.3339c-1.3627,0-2.7104-.2579-3.97729-.7596-1.95511-.7741-4.35841-1.9119-3.65571-2.904,0,0,1.924-1.0325,4.6013-3.0345,1.5163-1.1491,5.5915-3.8974,6.1719-3.8974l4.8333,3.9093s-2.4466,2.7689-5.6396,6.6862Z" style="fill:#9f5b53;"></path><path d="M579.807,208.7776c-3.22221-1.6111-6.20741-.8174-8.49371,2.618-3.6369,9.868-16.3487,33.6229-16.3487,33.6229l-19.9081,20.6079,7.807,8.0339,13.9544-11.7884c5.06211-4.6049,8.0524-6.03,8.9764-7.9728,0,0,12.4675-18.7654,19.3673-33.1686,2.1006-4.3849-1.0859-9.625-5.35459-11.9529Z" style="fill:#263238;"></path><path d="M625.11919,206.4794l-1.7533-5.781,6.5273-6.1482s.5094,11.2066,.1777,11.3961c-4.47789,2.4996-4.9517,.5331-4.9517,.5331Z" style="fill:#9f5b53;"></path><path d="M623.40149,200.6984l-1.9902-3.1274c-.4802-.7683-.4802-1.7431,0-2.5114l1.87171-3.0919c.11959-.204,.269-.389,.44339-.5488,.96461-.884,2.4634-.8187,3.3474,.146l2.8194,2.9853c-.7581,4.6319-6.4917,6.1482-6.4917,6.1482Z" style="fill:#9f5b53;"></path><path d="M622.63139,213.6701l.1659-5.2716c0-1.3085,1.06071-2.3692,2.3692-2.3692l4.2292-.1659c.0279-.0004,.0558-.0004,.0837,.0002,1.197,.0264,2.146,1.0181,2.1197,2.2151,.62791,17.7576,1.4571,27.1635,1.9191,31.4993,.3103,2.5328-.964,4.9968-3.2104,6.2075-.6925,.3959-1.4943,.5579-2.2863,.462-.4893-.0949-.969-.2337-1.4334-.4147h0c-.8997-.3896-1.7284-.926-2.4522-1.5874-.9273-.9815-1.6912-2.1053-2.2626-3.3288l.7581-27.2465Z" style="fill:#263238;"></path><path d="M633.00879,240.1347c.40321,2.2834-.6925,4.5699-2.7247,5.6863-.6895,.3794-1.4822,.5288-2.2626,.4264-.4893-.0948-.969-.2336-1.4334-.4146h0c-.8997-.3896-1.7284-.9261-2.4522-1.5874-.9273-.9815-1.6912-2.1054-2.2626-3.3288-5.1295-9.5244-13.0069-34.7932-13.0069-34.7932h0c3.2587,.0059,11.9073,2.8142,13.1727,5.8172l.7108,1.7177,9.9864,24.3323,.2725,2.1441Z" style="fill:#263238;"></path></g></g><g id="freepik--Character_2--inject-7"><g><g><polygon points="340.68569 432.416 334.41159 453.7458 328.039 453.3735 329.38579 430.2261 340.68569 432.416" style="fill:#cd877b;"></polygon><polygon points="372.81169 433.8614 370.07429 455.1145 363.636 455.1145 361.98259 434.2556 372.81169 433.8614" style="fill:#cd877b;"></polygon><path d="M385.43658,277.70978c-.78479-1.77289-1.30847-3.65021-1.55487-5.5733l-22.78601,1.17163s-.03918,.05042-.11139,.15533l-11.30902-.94373s.646,1.65338-1.54388,6.03314c-2.26752,4.88391-4.06403,9.97302-5.3653,15.198-3.32861,12.2088-2.15704,18.95374-.22992,27.01251,2.75928,11.54089-2.90161,60.61682-2.90161,60.61682-11.79266,28.83008-11.26709,64.60229-11.26709,64.60229l8.38739,1.00739s16.37885-54.82159,27.88068-94.82404c.0661,14.81641-.79156,30.17786-.79156,30.17786-6.88721,30.75732-1.09491,65.69727-1.09491,65.69727h8.40918s17.48651-102.64105,19.11804-132.2049c.63501-10.57715-2.22284-31.47986-4.83972-38.12628Z" style="fill:#407BFF;"></path><path d="M348.38329,280.8414l1.6096-3.2849,1.6862,.23-.9745,3.4162-2.3213-.3613Z" style="fill:#407BFF;"></path><path d="M372.71319,278.323c4.5659-.2737,8.27781-.7446,10.6539-1.095l1.1825,3.3834c-3.9209,.6297-7.87159,1.0573-11.8364,1.2811v-3.5695Z" style="fill:#407BFF;"></path><path d="M354.24129,278.0383c5.2619,.5012,10.5518,.6439,15.833,.427v3.5367c-1.5329,0-3.1315,.0986-4.7959,.0986-3.979,.0022-7.95539-.2024-11.9131-.6132l.876-3.4491Z" style="fill:#407BFF;"></path><g><g><path d="M372.76969,450.6175h-2.8775c-.6511,0-1.2534,.3294-1.6381,.8547-1.6594,2.2661-2.9065,1.4096-4.7114-.7209-1.1474-.1338-1.4563,1.183-1.5499,1.5369l-2.1511,7.8248c-.1868,.6534,.1914,1.3346,.8448,1.5214,.1162,.0332,.2367,.0492,.3576,.0473h22.79791c3.626,0,4.37739-3.6541,2.88379-3.9922-6.7163-1.4842-11.4721-3.4606-13.5481-5.4144-.3849-.3421,.0104-.598-.408-1.6576Z" style="fill:#263238;"></path><path d="M378.64719,452.795c.30281-.2179,.4841-.5665,.4885-.9395,.0255-.2-.06569-.3971-.2348-.5072-.9018-.6386-4.4995,1.0427-4.9035,1.24-.0448,.0161-.0802,.0514-.0963,.0963-.0298,.083,.0134,.1745,.0963,.2043,.8841,.2092,1.7878,.3257,2.696,.3475,.68161,.0649,1.3663-.0898,1.9538-.4414Zm.0282-1.1743c.0733,.0455,.1108,.1315,.094,.2162-.0151,.2691-.1451,.5189-.357,.6856-.8172,.6106-2.7898,.3475-3.8513,.1503,1.4936-.6575,3.6165-1.3995,4.1143-1.0521Z" style="fill:#407BFF;"></path><path d="M374.11959,452.9265c1.0803-.4509,3.3441-2.2263,3.222-3.1656-.0188-.1972-.1597-.4321-.6482-.4978-1.9726-.2255-2.818,3.3158-2.818,3.4662-.0195,.0606-.0011,.127,.0469,.169,.0368,.0109,.076,.0109,.1128,0l.0845,.0282Zm2.5081-3.3723c.36631,.0376,.36631,.1691,.36631,.216,.10329,.573-1.54051,2.0478-2.71471,2.6678,.2442-.8266,.9675-2.8932,2.2168-2.8932l.1316,.0094Z" style="fill:#407BFF;"></path></g><g><path d="M337.60189,450.6175h-2.8776c-.651,0-1.2534,.3294-1.6381,.8547-1.6593,2.2661-2.9064,1.4096-4.7113-.7209-1.1474-.1338-1.4563,1.183-1.54989,1.5369l-2.15111,7.8248c-.18689,.6534,.1913,1.3346,.8448,1.5214,.1162,.0332,.2367,.0492,.3575,.0473h22.798c3.6259,0,4.3773-3.6541,2.88381-3.9922-6.71631-1.4842-11.47221-3.4606-13.54821-5.4144-.38479-.3421,.0105-.598-.4079-1.6576Z" style="fill:#263238;"></path><path d="M343.47939,452.795c.3028-.2179,.484-.5665,.4885-.9395,.0254-.2-.0657-.3971-.23489-.5072-.90181-.6386-4.49951,1.0427-4.90341,1.24-.0449,.0161-.0802,.0514-.0963,.0963-.0298,.083,.0133,.1745,.0963,.2043,.8841,.2092,1.7877,.3257,2.696,.3475,.6816,.0649,1.3662-.0898,1.9538-.4414Zm.0282-1.1743c.0733,.0455,.1107,.1315,.0939,.2162-.015,.2691-.145,.5189-.3569,.6856-.8172,.6106-2.7899,.3475-3.8513,.1503,1.4935-.6575,3.6165-1.3995,4.1143-1.0521Z" style="fill:#407BFF;"></path><path d="M338.95179,452.9265c1.08021-.4509,3.3441-2.2263,3.2219-3.1656-.01869-.1972-.15969-.4321-.6481-.4978-1.97259-.2255-2.8181,3.3158-2.8181,3.4662-.01949,.0606-.001,.127,.047,.169,.0367,.0109,.0759,.0109,.1127,0l.0846,.0282Zm2.5081-3.3723c.3663,.0376,.3663,.1691,.3663,.216,.1033,.573-1.5405,2.0478-2.7148,2.6678,.2443-.8266,.96761-2.8932,2.2169-2.8932l.1316,.0094Z" style="fill:#407BFF;"></path></g></g></g><path d="M334.44449,236.2767s-12.8219,26.3665-7.4676,28.5345,23.3992,3.3834,23.3992,3.3834l7.8727,7.5333,4.555-2.9673-1.1497-7.6647-10.3473-2.1899-13.8183-4.2922c-1.1467-.3845-1.7647-1.6257-1.3802-2.7725,.0196-.0585,.04171-.1162,.0662-.173l6.6793-14.6505-8.4093-4.7411Z" style="fill:#cd877b;"></path><g><path d="M362.25639,189.555c-.1971-.668,0-1.3249,.4489-1.4454,.4489-.1204,.9526,.3175,1.14971,.9964,.19709,.6789,0,1.3249-.44891,1.4454-.449,.1204-.9636-.3176-1.1497-.9964Z" style="fill:#263238;"></path><path d="M362.17969,190.5842l5.1682,3.2849c-.79389,1.2206-2.1167,1.9956-3.5696,2.0914l-1.5986-5.3763Z" style="fill:#c15854;"></path><path d="M360.61389,188.3067c.1298-.0423,.2315-.144,.2738-.2737,.2834-1.0098,1.032-1.8235,2.0147-2.1899,.21461-.0634,.3372-.2887,.2738-.5033l-.0001-.0004c-.0589-.2196-.2832-.3513-.5037-.2957-1.2483,.4452-2.206,1.464-2.5731,2.7374-.0737,.2086,.0336,.4376,.2409,.5147h0c.0853,.0433,.1852,.0473,.2737,.0109Z" style="fill:#263238;"></path><path d="M339.11989,196.9131c3.46011,8.1793,4.75211,11.716,10.4897,14.5191,8.0041,2.0913,17.9463-1.8286,16.9828-10.8948-.8541-8.1465-6.3617-20.1253-15.7455-20.6071-6.6853-.3483-12.3871,4.7888-12.7354,11.474-.09849,1.8898,.2469,3.7764,1.0084,5.5087v.0001Z" style="fill:#cd877b;"></path><path d="M347.365,221.1663s5.14619-2.5184,1.43429-12.3292c0,0,4.1061-4.0732,8.3764-2.3432,4.2704,1.7301,.6789,10.7634,5.7048,12.154,0,0-2.617,3.6243-15.51549,2.5184Z" style="fill:#cd877b;"></path><path d="M357.41669,194.8107c-1.3191-1.2794-2.5109-2.6839-3.55869-4.1936-1.74091-2.5075,2.32129-5.4201,1.63149-10.0627s-5.4747-1.8176-5.4747-1.8176c0,0-11.6066-1.3139-13.1395,10.7415-4.2585,6.6082-2.3536,15.4173,4.2546,19.6758,3.0224,1.9477,6.67,2.6794,10.2098,2.0481l.7664-.1752c3.1032-1.0087,5.2061-3.898,5.212-7.161l.0986-9.0553Z" style="fill:#263238;"></path><path d="M339.90829,192.2267c-.1861-2.7484-.8979-4.9383-3.6462-4.7521-2.7483,.1861-2.9126,2.4527-2.7264,5.201,.1861,2.7483,.6788,4.9492,3.4272,4.7521,2.7483-.1971,3.1206-2.4527,2.9454-5.201Z" style="fill:#407BFF;"></path><path d="M354.96389,194.2852c1.6856,.6734,3.0306,1.9947,3.7338,3.6681,.9198,2.1899-.9964,3.6462-3.2848,3.2848-2.0366-.3175-4.9492-1.8723-4.9164-4.2374,.0258-1.7052,1.4291-3.0665,3.1342-3.0407,.4632,.007,.9188,.1181,1.3332,.3252Z" style="fill:#cd877b;"></path><path d="M326.17759,193.1902c.292,4.0644,3.8186,7.1256,7.8837,6.8435,4.0732-.2847,4.3141-3.6134,4.0294-7.6647-.28469-4.0513-.9964-7.3253-5.05869-7.0406-4.05961,.2866-7.12381,3.801-6.85441,7.8618Z" style="fill:#263238;"></path><path d="M354.15369,177.0287c-.7665,1.0949-1.5329,2.6826-.7008,3.7885,.4708,.6351,1.3249,.8541,1.8943,1.4125,.5689,.676,.9065,1.5163,.9636,2.398,.5269,3.1519,.7979,6.3413,.81021,9.537,2.18989-3.7885,4.53309-7.796,4.62069-12.1868,.0651-1.3118-.2023-2.6187-.7774-3.7995-.6038-1.1839-1.7255-2.0181-3.033-2.2556-1.2921-.1752-3.7776,1.1059-3.7776,1.1059Z" style="fill:#263238;"></path></g><path d="M382.78679,226.3564l13.0299,8.3107c.9408,.6055,2.1942,.3337,2.7997-.607,.0243-.0378,.0474-.0764,.0691-.1157l10.5773-18.9646,3.8323-9.8546,1.095-1.1935,6.5697-5.5623h2.5184l-4.8835,4.3798,1.3577,2.3213,2.1899,4.982-8.7048,7.6647s-5.0587,22.7422-10.4788,27.5929c-4.3031,3.8542-25.9613-11.4533-25.9613-11.4533l5.9894-7.5004Z" style="fill:#cd877b;"></path><g><path d="M338.27679,226.7177c-.2555-.769-1.086-1.1852-1.855-.9297-.2479,.0823-.4694,.2294-.6415,.4261-1.3358,1.4891-3.2848,4.4893-5.5842,10.5334l-2.3323,6.2303,11.89121,8.1903,4.47839-6.8216-5.9566-17.6288Z" style="fill:#fff;"></path><polygon points="341.47409 250.0512 327.86379 240.4704 326.87839 243.4158 339.73309 252.3397 341.47409 250.0512" style="fill:#407BFF;"></polygon><polygon points="341.47409 250.0512 327.86379 240.4704 326.87839 243.4158 339.73309 252.3397 341.47409 250.0512" style="fill:#fff; isolation:isolate; opacity:.5;"></polygon><path d="M366.15439,219.1626s.5037-6.2632-11.62839-3.7338c-12.13211,2.5293-3.98571,6.0113-3.98571,6.0113l15.6141-2.2775Z" style="fill:#407BFF;"></path><path d="M366.15439,219.1626s.5037-6.2632-11.62839-3.7338c-12.13211,2.5293-3.98571,6.0113-3.98571,6.0113l15.6141-2.2775Z" style="fill:#fff; isolation:isolate; opacity:.5;"></path><path d="M383.67369,274.3811c-13.5775,2.6389-29.14769,1.5549-34.8525,1.0183-1.292-.1313,1.095-15.3293-12.6138-42.8674-1.3975-2.6005-.81139-5.8217,1.4124-7.7633,9.3291-7.7194,26.279-7.4238,34.05321-6.7997,2.75039,.1932,5.25309,1.6592,6.76679,3.9638,2.70621,4.5845,4.5298,9.6354,5.37621,14.8914,.91539,4.9993,1.439,10.0624,1.56579,15.1432,.3613,12.0226-1.095,22.2933-1.7081,22.4137Z" style="fill:#fff;"></path><path d="M385.38179,251.9674c-4.37979-.8321-10.5335-16.9827-10.5335-16.9827l8.96771,1.8395c.91549,4.9993,1.439,10.0624,1.56579,15.1432Z" style="isolation:isolate; opacity:.2;"></path><path d="M373.79719,218.4289c3.3834,1.0293,10.8291,4.3798,22.5013,15.3951l-8.5844,11.497c-5.6614-1.2599-10.4156-5.0795-12.8658-10.3364-2.2195-4.6588-3.3431-9.764-3.2848-14.9242,.013-.9554,.798-1.7193,1.7534-1.7063,.1628,.0022,.3245,.0274,.4803,.0748Z" style="fill:#fff;"></path><polygon points="394.95169 231.4808 385.23949 245.5072 388.49149 246.186 397.65629 233.6707 394.95169 231.4808" style="fill:#407BFF;"></polygon><polygon points="394.95169 231.4808 385.23949 245.5072 388.49149 246.186 397.65629 233.6707 394.95169 231.4808" style="fill:#fff; isolation:isolate; opacity:.5;"></polygon></g></g></g><g id="freepik--Character_1--inject-7"><g><g><g><path d="M162.7805,209.7634c3.7385-4.3988,1.8745-14.6229,.1954-20.0752l14.0903,8.7157c-.1965,.6788-.3457,1.3704-.447,2.0697-.2267,1.2566-.126,2.5504,.2924,3.7566,.3879,.9885,1.9925,3.6585,1.9925,3.6585,0,0,1.1357,3.0921-7.2962,4.2992-3.6422,.9287-8.8274-2.4245-8.8274-2.4245Z" style="fill:#895555;"></path><path d="M166.1075,195.0057c.3119,6.6291,7.3456,8.7289,10.8117,9.2353-.4183-1.2064-.519-2.5001-.2924-3.7566l-10.5193-5.4787Z" style="isolation:isolate; opacity:.2;"></path><g><g><path d="M175.2648,168.8491c6.4563-1.3381,3.0877,3.8738,10.199,4.8095,.1872,4.3229-4.7252,9.1979-6.5966,6.5498-2.0585-2.91-8.9733-10.302-3.6024-11.3593Z" style="fill:#263238;"></path><path d="M149.8269,175.4106c.131,5.137,5.034,4.1264,5.034,4.1264-4.3978,1.8901-7.5604,1.0761-5.034-4.1264Z" style="fill:#263238;"></path><path d="M160.0719,185.1675c2.7688,7.4448,4.1756,11.6996,9.2944,14.3872,7.7,4.0426,16.1146-2.1417,15.6928-10.2911-.3798-7.3351-4.8437-18.2776-13.3984-18.9554-8.4282-.6677-14.3576,7.4144-11.5888,14.8593Z" style="fill:#895555;"></path><path d="M170.8711,183.8197c.2342,.7764,.8472,1.2759,1.3695,1.1159,.5218-.1599,.7553-.9192,.5211-1.6957-.2341-.7763-.8472-1.276-1.3691-1.1159-.5221,.16-.7556,.9191-.5215,1.6957Z" style="fill:#263238;"></path><path d="M178.8272,182.0604c.2341,.7767,.8471,1.2762,1.3691,1.1162,.5221-.16,.7555-.9192,.5213-1.6958-.234-.7764-.847-1.276-1.369-1.116-.5221,.1602-.7556,.9193-.5214,1.6956Z" style="fill:#263238;"></path><path d="M177.1266,182.1982s3.6956,3.108,4.9809,4.4384c-.8187,1.3059-2.8721,1.4238-2.8721,1.4238l-2.1088-5.8622Z" style="fill:#6d3939;"></path><path d="M168.8603,180.9642c.1351,.0121,.2745-.0451,.3602-.1625,1.0199-1.3923,2.4561-1.3705,2.4706-1.3702,.2152,.0055,.3983-.1596,.4088-.3689,.0102-.2093-.1567-.3836-.3708-.3898-.0758-.0024-1.8758-.0305-3.1408,1.6976-.1264,.1724-.0872,.4089,.0873,.528,.0566,.0389,.12,.0601,.1847,.0658Z" style="fill:#263238;"></path><path d="M182.2809,177.5708c.0652-.0351,.121-.0887,.1584-.1581,.1013-.1871,.0308-.4176-.1581-.5144-1.8952-.9709-3.4655-.1103-3.5409-.0806-.1878,.1043-.2571,.3372-.1543,.5203,.1026,.1826,.3366,.2469,.5243,.1453,.0639-.0385,1.2822-.6863,2.8033,.093,.119,.0611,.2567,.0544,.3673-.0055Z" style="fill:#263238;"></path></g><g><path d="M179.3664,190.741c-.5245,.9615-.9786,1.9596-1.3586,2.9868-.1881-.0364-.3815-.0689-.5681-.1144-2.567-.5305-3.5867-1.6203-3.9255-2.6763-.1569-.5192-.1896-1.068-.0954-1.6022,.0459-.3023,.1335-.5967,.2605-.8748,1.1939,1.0954,3.542,1.7739,4.816,2.0824,.5549,.1074,.8711,.1985,.8711,.1985Z" style="fill:#263238;"></path><path d="M178.5003,190.5424l-.4257,.8708c-2.4105-.5043-4.0402-1.1757-4.6508-2.0784,.0458-.3023,.1335-.5967,.2605-.8747,1.2015,1.106,3.542,1.7737,4.816,2.0823Z" style="fill:#fff;"></path><path d="M177.4507,193.6691c-2.5671-.5306-3.5868-1.6204-3.9255-2.6764,.9717,.2193,1.8969,.6087,2.733,1.1504,.5466,.372,.9635,.9055,1.1925,1.526Z" style="fill:#c15854;"></path></g></g></g><path d="M153.2702,178.36s-3.2562-5.8949-.159-9.0388c4.8469-4.9218,9.1885-.8889,19.1724-9.488,.4397,2.5919-2.489,4.9218,.8234,5.6142,3.3123,.6924,4.903-2.4889,10.1429-1.9837-2.1895,1.5907,1.6281,5.7546-2.648,9.357s-12.2857,1.2445-12.2857,1.2445c-.1029,3.1907-4.5849,5.8387-4.5849,5.8387,.6442,1.3458,1.1068,2.7711,1.3755,4.2387,.1596,1.8767,.0557,3.7664-.3088,5.6142-16.4682-3.0129-11.5278-11.3968-11.5278-11.3968Z" style="fill:#263238;"></path><g><path d="M158.8933,192.4063c1.214,1.7684,3.161,2.8066,4.937,3.0949,2.6714,.4339,2.7943-2.2992,1.8521-4.6241-.8479-2.0925-2.2853-4.5218-4.8706-3.897-2.5469,.6159-3.3064,3.4043-1.9185,5.4262Z" style="fill:#895555;"></path><path d="M160.0455,189.7798c.1783-.5463,.7702-.903,1.3561-.9345,.5859-.0313,1.1543,.2136,1.6206,.555,.5594,.4099,1.0047,.9658,1.2774,1.595" style="fill:none; opacity:.2; stroke:#000; stroke-linecap:round; stroke-linejoin:round; stroke-width:.5px;"></path></g></g><path d="M161.8289,449.9776c-.1288-.5192-2.1893-11.5947-2.1893-11.5947l10.8179-1.4167,1.1227,11.6984-6.4029,3.6772-3.3484-2.3642Z" style="fill:#895555;"></path><g><path d="M172.6961,447.1882h-3.4062c-.7707,0-1.4837,.3899-1.9391,1.0117-1.9642,2.6825-3.4404,1.6685-5.5769-.8534-1.3582-.1583-1.7239,1.4004-1.8347,1.8193l-2.5463,9.2624c-.2211,.7735,.2265,1.5798,1,1.801,.1376,.0392,.2802,.0582,.4233,.056h26.9864c4.2922,0,5.1816-4.3256,3.4137-4.7257-7.9503-1.7569-13.5799-4.0964-16.0373-6.4092-.4556-.4049,.0124-.7079-.4829-1.9621Z" style="fill:#263238;"></path><path d="M180.0874,449.8219c.3584-.2579,.5729-.6705,.5782-1.112,.0301-.2368-.0778-.4701-.278-.6005-1.0675-.7559-5.3262,1.2344-5.8043,1.4678-.0531,.0191-.095,.0609-.114,.114-.0353,.0983,.0158,.2066,.114,.2418,1.0465,.2478,2.1162,.3857,3.1913,.4115,.8068,.0767,1.6173-.1064,2.3128-.5226Zm.0333-1.39c.0868,.0538,.1311,.1557,.1113,.2559-.0179,.3185-.1718,.6142-.4226,.8116-.9673,.7228-3.3024,.4113-4.5588,.1779,1.7679-.7783,4.2808-1.6567,4.8701-1.2454Z" style="fill:#407BFF;"></path><path d="M174.7279,449.9776c1.2788-.5337,3.9585-2.6353,3.8139-3.7472-.0222-.2335-.189-.5115-.7672-.5893-2.335-.2669-3.3358,3.9251-3.3358,4.103-.0231,.0718-.0012,.1504,.0556,.2001,.0435,.0129,.0899,.0129,.1334,0l.1001,.0334Zm2.9689-3.9919c.4336,.0445,.4336,.2002,.4336,.2557,.1223,.6783-1.8235,2.4241-3.2135,3.1579,.2891-.9784,1.1453-3.4247,2.6241-3.4247l.1558,.0111Z" style="fill:#407BFF;"></path><path d="M175.0606,449.8168c-1.1731,.1601-2.2615,.8611-2.8925,1.8631" style="fill:none; stroke:#407BFF; stroke-linecap:round; stroke-linejoin:round; stroke-width:.5px;"></path><path d="M177.1776,451.4102c-1.1733,.1601-2.2616,.8611-2.8926,1.8632" style="fill:none; stroke:#407BFF; stroke-linecap:round; stroke-linejoin:round; stroke-width:.5px;"></path><path d="M179.8113,452.75c-1.1732,.1601-2.2616,.8612-2.8926,1.8632" style="fill:none; stroke:#407BFF; stroke-linecap:round; stroke-linejoin:round; stroke-width:.5px;"></path></g><path d="M216.6631,449.9776c-.1288-.5192-2.1893-11.5947-2.1893-11.5947l10.8179-1.4167,1.1227,11.6984-6.4029,3.6772-3.3484-2.3642Z" style="fill:#895555;"></path><g><path d="M219.6033,364.2423c-2.9582-24.0193-15.5693-86.2338-15.5693-86.2338l-30.8065,1.9369s2.8648,8.8517,6.6429,21.3713c3.5706,11.8834,7.93,27.051,11.4175,41.0864,2.7506,11.1254,4.5566,21.5678,5.7295,29.0066,4.4113,28.0241,17.2965,75.2625,17.2965,75.2625l12.8441-1.6055s-4.5031-55.8601-7.5547-80.8244Z" style="fill:#407BFF;"></path><path d="M219.6033,364.2423c-2.9582-24.0193-15.5693-86.2338-15.5693-86.2338l-30.8065,1.9369s2.8648,8.8517,6.6429,21.3713c3.5706,11.8834,7.93,27.051,11.4175,41.0864,2.7506,11.1254,4.5566,21.5678,5.7295,29.0066,4.4113,28.0241,17.2965,75.2625,17.2965,75.2625l12.8441-1.6055s-4.5031-55.8601-7.5547-80.8244Z" style="opacity:.3;"></path><path d="M183.3487,296.4373l-2.882,6.2131c3.2188,11.8833,6.9496,24.9341,10.6117,38.9123,1.3661-13.7734-.8056-36.9474-7.7297-45.1254Z" style="isolation:isolate; opacity:.2;"></path><path d="M157.1704,280.9653s3.1035,58.3594,.4256,86.4302c-2.3562,24.6837,2.0436,78.5791,2.0436,78.5791l13.9748-.7113s2.7062-50.3115,6.7646-75.4536c3.7055-22.9807,7.0373-90.7625,7.0373-90.7625l-30.2459,1.9181Z" style="fill:#407BFF;"></path><path d="M157.1704,280.9653s3.1035,58.3594,.4256,86.4302c-2.3562,24.6837,2.0436,78.5791,2.0436,78.5791l13.9748-.7113s2.7062-50.3115,6.7646-75.4536c3.7055-22.9807,7.0373-90.7625,7.0373-90.7625l-30.2459,1.9181Z" style="opacity:.3;"></path></g><path d="M151.9653,224.2902c.9637,4.8469,1.6936,9.5909,2.255,14.2039,.1497,1.2257,.29,2.4515,.4117,3.6492,3.4831-5.4637,5.3005-11.8231,5.2305-18.3022l-7.8972,.4491Z" style="isolation:isolate; opacity:.2;"></path><g><path d="M137.1915,231.5226s-13.22692,24.6225-11.80248,29.9133c1.42444,5.2907,21.66738,19.896,21.66738,19.896l4.875-5.0893s-14.1678-17.2857-14.1678-18.5577c0-1.2719,13.6978-20.668,13.6978-20.668l-14.2699-5.4943Z" style="fill:#895555;"></path><path d="M204.2689,227.8098l6.6042,11.7649,7.2002-18.8109,4.3601,3.6312s-7.8627,34.729-12.3801,35.2604c-4.5174,.5315-15.97-24.1799-15.97-24.1799l10.1856-7.6657Z" style="fill:#895555;"></path><path d="M197.8113,212.1338c7.1113,6.7464,14.9929,13.8874,14.9929,13.8874l-15.0273,13.0249s-16.9922-15.4015-16.4121-22.9433c.6363-8.1686,11.5622-8.6007,16.4465-3.969Z" style="fill:#263238;"></path><path d="M159.8251,210.1799c1.1135-.1778,2.2551-.3369,3.3872-.4772,5.9561-.767,11.9513-1.1918,17.956-1.2726,.7424,.0063,1.4722,.0343,2.1896,.0843,3.3907,.2083,6.7655,.6239,10.1055,1.2444,0,0,5.9339,32.3845,11.7284,74.0884l-48.7352-2.91c-.3743-3.2094-.1029-12.6974-.7579-25.1421-.2807-5.3148-.7299-11.1722-1.4784-17.3011-1.0276-8.7964-2.7103-17.5038-5.0341-26.0497,0,0,4.9779-1.3755,10.6389-2.2644Z" style="fill:#263238;"></path><path d="M159.8812,226.5826c-4.0609,8.8985-9.1324,18.1245-9.1324,18.1245l-18.39045-8.0534s13.78445-24.3032,16.82785-24.2094c8.9827-1.8059,15.1209,4.4445,10.695,14.1383Z" style="fill:#263238;"></path></g><g><path d="M227.5303,447.1882h-3.4062c-.7707,0-1.4837,.3899-1.9391,1.0117-1.9642,2.6825-3.4404,1.6685-5.5769-.8534-1.3582-.1583-1.7238,1.4004-1.8346,1.8193l-2.5464,9.2624c-.2211,.7735,.2265,1.5798,1,1.801,.1376,.0392,.2802,.0582,.4233,.056h26.9864c4.2922,0,5.1816-4.3256,3.4137-4.7257-7.9503-1.7569-13.5799-4.0964-16.0373-6.4092-.4556-.4049,.0124-.7079-.4829-1.9621Z" style="fill:#263238;"></path><path d="M234.9216,449.8219c.3584-.2579,.5729-.6705,.5782-1.112,.0301-.2368-.0778-.4701-.278-.6005-1.0675-.7559-5.3262,1.2344-5.8043,1.4678-.0531,.0191-.095,.0609-.114,.114-.0353,.0983,.0158,.2066,.114,.2418,1.0465,.2478,2.1162,.3857,3.1913,.4115,.8068,.0767,1.6173-.1064,2.3128-.5226Zm.0333-1.39c.0868,.0538,.1311,.1557,.1113,.2559-.0179,.3185-.1718,.6142-.4226,.8116-.9673,.7228-3.3024,.4113-4.5588,.1779,1.7679-.7783,4.2809-1.6567,4.8701-1.2454Z" style="fill:#407BFF;"></path><path d="M229.5621,449.9776c1.2788-.5337,3.9585-2.6353,3.8139-3.7472-.0222-.2335-.189-.5115-.7672-.5893-2.335-.2669-3.3358,3.9251-3.3358,4.103-.0231,.0718-.0012,.1504,.0556,.2001,.0435,.0129,.0899,.0129,.1334,0l.1001,.0334Zm2.9689-3.9919c.4336,.0445,.4336,.2002,.4336,.2557,.1223,.6783-1.8235,2.4241-3.2135,3.1579,.2891-.9784,1.1453-3.4247,2.6241-3.4247l.1558,.0111Z" style="fill:#407BFF;"></path><path d="M229.8949,449.8168c-1.1732,.1601-2.2616,.8611-2.8926,1.8631" style="fill:none; stroke:#407BFF; stroke-linecap:round; stroke-linejoin:round; stroke-width:.5px;"></path><path d="M232.0118,451.4102c-1.1733,.1601-2.2616,.8611-2.8926,1.8632" style="fill:none; stroke:#407BFF; stroke-linecap:round; stroke-linejoin:round; stroke-width:.5px;"></path><path d="M234.6455,452.75c-1.1732,.1601-2.2616,.8612-2.8926,1.8632" style="fill:none; stroke:#407BFF; stroke-linecap:round; stroke-linejoin:round; stroke-width:.5px;"></path></g><g><path d="M194.9466,207.3652c-5.2398-1.495-10.6151-1.9227-15.8592-1.4044l-3.1913-7.6128-15.1908,4.7499,1.7135,8.0748c-4.6038,2.5625-8.7783,5.9762-12.2326,10.1894l-7.6189-3.1175-7.3823,14.1004,6.9025,4.4856c-1.4943,5.2394-1.9219,10.6151-1.4046,15.8581l-7.61229,3.1919,4.75059,15.191,8.0749-1.7139c2.5614,4.6045,5.9754,8.7782,10.189,12.2334l-3.1169,7.6191,14.0995,7.3819,4.486-6.9024c5.2395,1.4941,10.6139,1.9217,15.8582,1.4038l3.1917,7.6126,15.1909-4.7504-1.7149-8.0752c4.6055-2.561,8.7789-5.9755,12.2335-10.1886l7.619,3.1172,7.3823-14.1003-6.902-4.4851c1.4948-5.239,1.9221-10.6147,1.4032-15.8592l7.6136-3.1915-4.7507-15.1904-8.0743,1.7145c-2.5626-4.6055-5.9758-8.779-10.1891-12.2332l3.1166-7.6187-14.0995-7.3818-4.4856,6.9018Zm-3.7027,21.1497c12.699,5.124,17.4944,20.4556,9.978,31.9028-5.5618,8.4705-16.5707,11.9134-25.9675,8.121-12.6981-5.1249-17.4925-20.455-9.9773-31.9015,5.5614-8.4704,16.5699-11.9139,25.9668-8.1223Z" style="fill:#407BFF;"></path><g><path d="M147.4481,272.4477s6.9234-2.0214,8.6206-.9859c1.6974,1.0357-.7386,2.4909-.7386,2.4909,0,0,2.7786-1.4365,3.5479-.3393,.9237,1.317-1.6352,2.8302-1.6352,2.8302,0,0,2.3168-1.08,2.9357-.0582,.642,1.0601-2.1247,2.9734-2.1247,2.9734,0,0,1.7751-.452,1.8036,.502,.028,.9538-5.7653,5.1279-8.2547,5.1804-2.4892,.0525-7.626-7.5575-8.3442-9.4697-.2061-.5491-.3931-1.5452,1.277-3.6574,.3499-.4425,.9886-.5498,1.4585-.2376l1.2479,.8286,.2062-.0574Z" style="fill:#895555;"></path><path d="M155.4075,274.0815l-.0115,.0061-4.9638,2.2726c-.0667,.0301-.1504-.0055-.1866-.08-.036-.0747-.0098-.1623,.0548-.1906l4.9639-2.2723c.0666-.0303,.1504,.0054,.1865,.0797,.0343,.0705,.0145,.1502-.0433,.1845Z" style="opacity:.2;"></path><path d="M157.1871,276.6522l-.0029,.0017-4.5943,2.5618c-.0641,.0355-.1489,.006-.1896-.066-.0413-.0728-.0247-.143,.0415-.1959l4.5942-2.5619c.0641-.0356,.1489-.0058,.19,.0661,.0403,.0714,.0227,.1573-.0389,.1942Z" style="opacity:.2;"></path><path d="M157.9767,279.5801l-3.3594,2.0012c-.0629,.0376-.1484,.0098-.1909-.0615-.0423-.071-.0261-.1595,.0368-.197l3.3595-2.0015c.063-.0376,.1484-.0097,.1909,.0615,.0424,.0711,.026,.1597-.0369,.1973Z" style="opacity:.2;"></path></g><g><path d="M218.9901,225.9397s-6.7368,2.5759-8.5124,1.6814c-1.7757-.8947,.5343-2.5426,.5343-2.5426,0,0-2.653,1.657-3.5087,.6257-1.0274-1.2377,1.4004-2.9534,1.4004-2.9534,0,0-2.2217,1.2643-2.9213,.296-.7258-1.0047,1.8767-3.1358,1.8767-3.1358,0,0-1.7326,.5944-1.8383-.3542-.1052-.9485,5.3307-5.5783,7.8076-5.8324,2.4768-.2541,8.2135,6.9145,9.0843,8.7622,.25,.5306,.517,1.5083-.9764,3.7489-.3129,.4695-.9407,.6281-1.4344,.355l-1.3109-.7248-.2009,.074Z" style="fill:#895555;"></path><path d="M210.9244,224.9564l.0111-.007,4.7632-2.6674c.064-.0354,.1504-.0067,.1924,.0646,.042,.0715,.023,.161-.0391,.1944l-4.7634,2.6672c-.064,.0355-.1504,.0068-.1923-.0644-.04-.0675-.0267-.1485,.0281-.1874Z" style="opacity:.2;"></path><path d="M208.9423,222.5384l.0028-.0019,4.3715-2.9257c.061-.0407,.148-.0181,.1944,.0503,.047,.0693,.0361,.1405-.0255,.1987l-4.3715,2.9258c-.061,.0407-.1479,.0179-.1947-.0505-.0459-.0679-.0354-.1549,.023-.1967Z" style="opacity:.2;"></path><path d="M207.9181,219.6841l3.1861-2.2669c.0597-.0425,.1471-.0218,.1952,.0459,.048,.0673,.039,.1568-.0206,.1993l-3.1863,2.2671c-.0597,.0426-.1471,.0218-.1952-.0458-.0481-.0674-.0389-.157,.0208-.1996Z" style="opacity:.2;"></path></g></g></g></g></svg>
