<svg xmlns="http://www.w3.org/2000/svg"  viewBox="0 0 48 48" width="96px" height="96px"><path fill="#4b7bb2" d="M19.325,43.979c7.857,2.062,16.683-1.18,21.837-7.336c1.572-1.878,2.847-4.016,3.564-6.34 c1.301-4.219,0.693-8.817-0.776-12.983c-1.036-2.939-2.543-5.801-4.907-7.88c-1.115-0.98-2.394-1.763-3.67-2.533 c-2.386-1.439-4.872-2.881-7.646-3.274c-3.945-0.558-7.831,1.075-11.468,2.67c-2.062,0.905-4.16,1.832-5.848,3.302 c-2.378,2.072-3.724,5.025-4.878,7.929c-1.41,3.55-2.653,7.391-1.83,11.113c0.333,1.507,0.993,2.925,1.72,4.293 c0.445,0.838,0.921,1.668,1.551,2.383c0.671,0.762,1.5,1.374,2.322,1.979c1.924,1.417,3.06,2.453,4.984,3.87 c1.706,1.256,4.315,2.94,6.439,3.158"/><path fill="#d6e5e5" d="M38.299,17.764c-0.221-1.247-0.387-3.398-1.116-4.433c-1.45-2.056-4.148-2.959-6.659-2.799 c-3.047,0.195-6.113,2.002-7.15,4.873c-0.336,0.929-0.452,1.927-0.444,2.915c0.003,0.38,0.023,0.771-0.103,1.13 c-0.101,0.288-0.288,0.536-0.473,0.779c-1.191,1.566-1.382,3.133-2.574,4.699c-0.241,0.317-0.498,0.647-0.862,0.81 c-0.4,0.179-1.858,0.126-2.296,0.152c-1.032,0.059-2.027,0.596-2.643,1.427L13.9,27.627c-3.346-1.339-6.596-3.423-9.856-4.719 c0,0-0.603,1.531-0.603,3.505c0,1.728,0.778,3.622,0.778,3.622c2.753,1.022,5.505,2.044,8.258,3.067l-0.023,0.087 c-0.046,0.971,0.356,1.955,1.068,2.616c0.385,0.357,0.849,0.62,1.328,0.836c1.519,0.684,3.293,0.91,4.866,0.36 c1.573-0.55,2.883-1.956,3.07-3.612c0.062-0.547,0.017-1.143,0.323-1.601c0.165-0.248,0.415-0.424,0.659-0.594 c1.849-1.29,3.967-2.479,5.816-3.769c2.914-0.252,6.048-0.906,7.674-3.338C38.59,22.094,38.718,20.124,38.299,17.764z"/><path fill="#010101" d="M45.8,22.893c-0.508-4.363-2.103-8.995-4.968-12.386c-1.514-1.791-3.468-3.01-5.453-4.211 c-1.897-1.148-3.815-2.36-5.994-2.894c-4.502-1.104-9.26,0.366-13.341,2.23c-1.979,0.904-3.937,1.964-5.627,3.345 c-1.686,1.378-2.919,3.212-3.883,5.146c-1.037,2.081-1.911,4.294-2.593,6.516c-0.714,2.328-1.136,4.782-0.78,7.212 c0.346,2.36,1.476,4.717,2.809,6.678c0.947,1.393,2.195,2.431,3.514,3.459c2.881,2.246,5.792,4.42,9.191,5.822 c0.796,0.328,1.612,0.622,2.46,0.785c3.945,0.697,7.981,0.406,11.692-1.155c3.697-1.555,6.88-4.228,9.318-7.391 c1.379-1.789,2.496-3.798,3.132-5.973C45.955,27.753,46.079,25.289,45.8,22.893z M43.047,32.853 c-3.648,6.735-10.955,11.405-18.679,11.104c-0.997-0.039-1.986-0.153-2.968-0.326c-3.257-0.627-6.163-2.613-8.788-4.535 c-1.386-1.014-2.78-2.032-4.07-3.166c-1.395-1.226-2.326-2.768-3.133-4.429c-1.079-2.219-1.574-4.516-1.297-6.981 c0.264-2.357,1.073-4.627,1.942-6.819c0.761-1.917,1.596-3.829,2.78-5.528c1.216-1.745,2.833-3.018,4.652-4.089 c3.641-2.144,7.891-3.902,12.163-4.018c2.267-0.062,4.333,0.379,6.349,1.423c1.882,0.974,3.762,2.108,5.494,3.329 c3.585,2.526,5.551,6.599,6.656,10.74C45.335,24.007,45.278,28.734,43.047,32.853z"/><path fill="#010101" d="M4.086,30.517c2.832,1.052,5.663,2.103,8.495,3.155c1.297,0.482,2.606,1.086,3.961,1.38 c1.075,0.233,2.251,0.203,3.117-0.559c1.683-1.482,1.58-4.429-0.38-5.586c-0.947-0.559-2.06-0.722-3.104-1.013 c-1.288-0.359-2.53-0.866-3.74-1.433c-2.776-1.3-5.41-2.888-8.258-4.034c-0.597-0.24-0.856,0.727-0.266,0.964 c4.355,1.753,8.229,4.55,12.835,5.681c0.89,0.219,1.935,0.429,2.581,1.136c0.792,0.867,0.612,2.315-0.041,3.212 c-0.733,1.006-2.014,0.83-3.064,0.516c-1.183-0.354-2.334-0.84-3.491-1.269c-2.793-1.037-5.587-2.075-8.38-3.112 C3.747,29.328,3.487,30.295,4.086,30.517L4.086,30.517z"/><path fill="#010101" d="M11.954,33.188c-0.049,3.006,2.982,4.514,5.634,4.616c2.529,0.097,5.202-1.466,5.656-4.105 c0.106-0.614-0.028-1.35,0.451-1.824c0.563-0.557,1.382-0.965,2.047-1.388c0.657-0.418,1.319-0.826,1.978-1.241 c0.327-0.206,0.654-0.414,0.979-0.625c0.322-0.21,0.658-0.525,1.01-0.673c0.483-0.203,1.221-0.164,1.751-0.248 c0.637-0.101,1.27-0.233,1.889-0.416c1.162-0.344,2.272-0.865,3.2-1.653c2.098-1.782,2.696-4.611,2.35-7.232 c-0.305-2.313-0.455-4.877-2.344-6.493c-3.773-3.228-10.315-2.173-12.983,1.978c-0.877,1.364-1.143,2.955-1.141,4.553 c0.001,0.472-0.03,0.845-0.291,1.246c-0.239,0.366-0.517,0.701-0.739,1.079c-0.44,0.75-0.745,1.567-1.12,2.349 c-0.32,0.667-0.808,1.793-1.506,2.138c-0.443,0.219-1.114,0.128-1.595,0.132c-1.399,0.012-2.662,0.451-3.553,1.582 c-0.394,0.5,0.309,1.212,0.707,0.707c0.782-0.993,1.78-1.278,2.991-1.291c0.984-0.01,1.862,0.01,2.561-0.783 c0.89-1.009,1.36-2.252,1.924-3.451c0.534-1.136,1.563-2.067,1.623-3.366c0.066-1.444,0.084-2.793,0.821-4.09 c0.575-1.011,1.434-1.834,2.423-2.437c1.973-1.203,4.427-1.56,6.655-0.935c1.15,0.322,2.228,0.912,3.04,1.798 c0.773,0.843,0.991,1.918,1.174,3.015c0.398,2.382,0.88,4.836-0.335,7.07c-1.184,2.177-3.404,3.081-5.741,3.489 c-0.564,0.098-1.132,0.162-1.702,0.219C29.11,26.974,28.546,27.53,28,27.882c-1.206,0.778-2.438,1.515-3.636,2.305 c-0.533,0.352-1.179,0.696-1.578,1.207c-0.393,0.503-0.426,1.104-0.475,1.717c-0.109,1.35-0.939,2.48-2.112,3.127 c-2.42,1.336-7.299,0.303-7.244-3.051C12.964,32.544,11.964,32.544,11.954,33.188L11.954,33.188z"/><path fill="#010101" d="M35.565,17.868c-0.492-2.308-2.591-3.998-4.895-4.23c-0.082-0.008-0.153,0.002-0.213,0.024 c-2.28,0.148-3.978,1.938-4.406,4.145c-0.217,1.122-0.211,2.38,0.348,3.406c0.475,0.872,1.31,1.481,2.215,1.85 c0.818,0.333,1.854,0.594,2.725,0.336c0.432-0.128,0.844-0.316,1.264-0.476c0.399-0.152,0.813-0.243,1.201-0.429 C35.57,21.648,35.94,19.628,35.565,17.868z M33.773,21.352c-0.542,0.409-1.272,0.542-1.897,0.79 c-0.32,0.127-0.654,0.28-0.994,0.345c-0.336,0.064-0.711-0.017-1.041-0.089c-0.781-0.168-1.548-0.497-2.117-1.071 c-0.67-0.676-0.839-1.584-0.795-2.507c0.099-2.102,1.49-4.141,3.742-4.182c1.608,0.162,3.106,1.28,3.716,2.779 C34.888,18.65,34.942,20.468,33.773,21.352z"/></svg>